HIERARCHY
ROOT Haolin_V1:Solving:Hips
{
	OFFSET 0.000000 0.000000 0.000000
	CHANNELS 6 Xposition Yposition Zposition Xrotation Yrotation Zrotation
	JOINT Haolin_V1:Solving:Spine
	{
		OFFSET 0.000000 -12.731938 2.520517
		CHANNELS 6 Xposition Yposition Zposition Xrotation Yrotation Zrotation
		JOINT Haolin_V1:Solving:Spine1
		{
			OFFSET 0.000000 -8.486854 1.496462
			CHANNELS 6 Xposition Yposition Zposition Xrotation Yrotation Zrotation
			JOINT Haolin_V1:Solving:Spine2
			{
				OFFSET 0.000000 -8.584984 0.751091
				CHANNELS 6 Xposition Yposition Zposition Xrotation Yrotation Zrotation
				JOINT Haolin_V1:Solving:Spine3
				{
					OFFSET 0.000000 -8.617775 0.000000
					CHANNELS 6 Xposition Yposition Zposition Xrotation Yrotation Zrotation
					JOINT Haolin_V1:Solving:Neck
					{
						OFFSET 0.000000 -11.080002 -1.107998
						CHANNELS 6 Xposition Yposition Zposition Xrotation Yrotation Zrotation
						JOINT Haolin_V1:Solving:Neck1
						{
							OFFSET 0.000000 -8.314011 -0.727381
							CHANNELS 6 Xposition Yposition Zposition Xrotation Yrotation Zrotation
							JOINT Haolin_V1:Solving:Head
							{
								OFFSET 0.000000 -8.218975 -1.449226
								CHANNELS 6 Xposition Yposition Zposition Xrotation Yrotation Zrotation
								JOINT Haolin_V1:Solving:HeadEnd
								{
									OFFSET 0.000000 -9.728081 0.000002
									CHANNELS 6 Xposition Yposition Zposition Xrotation Yrotation Zrotation
									End Site
									{
										OFFSET 0.000000 -9.728081 0.000002
									}
								}
							}
						}
					}
					JOINT Haolin_V1:Solving:RightShoulder
					{
						OFFSET 0.000000 -7.914288 -5.288076
						CHANNELS 6 Xposition Yposition Zposition Xrotation Yrotation Zrotation
						JOINT Haolin_V1:Solving:RightArm
						{
							OFFSET -20.201836 -0.000008 0.000000
							CHANNELS 6 Xposition Yposition Zposition Xrotation Yrotation Zrotation
							JOINT Haolin_V1:Solving:RightForeArm
							{
								OFFSET -29.446457 -0.000008 0.000000
								CHANNELS 6 Xposition Yposition Zposition Xrotation Yrotation Zrotation
								JOINT Haolin_V1:Solving:RightHand
								{
									OFFSET -23.111885 -0.000008 0.000000
									CHANNELS 6 Xposition Yposition Zposition Xrotation Yrotation Zrotation
									JOINT Haolin_V1:Solving:RightHandThumb1
									{
										OFFSET -3.824379 2.925484 -2.843767
										CHANNELS 6 Xposition Yposition Zposition Xrotation Yrotation Zrotation
										End Site
										{
											OFFSET -5.557076 0.000000 -5.608460
										}
									}
									JOINT Haolin_V1:Solving:RightHandMiddle1
									{
										OFFSET -10.198334 -0.000004 0.065374
										CHANNELS 6 Xposition Yposition Zposition Xrotation Yrotation Zrotation
										End Site
										{
											OFFSET -7.895309 -0.000004 0.000000
										}
									}
								}
							}
						}
					}
					JOINT Haolin_V1:Solving:LeftShoulder
					{
						OFFSET 0.000000 -7.914288 -5.288076
						CHANNELS 6 Xposition Yposition Zposition Xrotation Yrotation Zrotation
						JOINT Haolin_V1:Solving:LeftArm
						{
							OFFSET 20.201836 -0.000008 0.000000
							CHANNELS 6 Xposition Yposition Zposition Xrotation Yrotation Zrotation
							JOINT Haolin_V1:Solving:LeftForeArm
							{
								OFFSET 29.446457 -0.000008 0.000000
								CHANNELS 6 Xposition Yposition Zposition Xrotation Yrotation Zrotation
								JOINT Haolin_V1:Solving:LeftHand
								{
									OFFSET 23.111885 -0.000008 0.000000
									CHANNELS 6 Xposition Yposition Zposition Xrotation Yrotation Zrotation
									JOINT Haolin_V1:Solving:LeftHandThumb1
									{
										OFFSET 3.824379 2.925484 -2.843767
										CHANNELS 6 Xposition Yposition Zposition Xrotation Yrotation Zrotation
										End Site
										{
											OFFSET 5.557076 0.000000 -5.608460
										}
									}
									JOINT Haolin_V1:Solving:LeftHandMiddle1
									{
										OFFSET 10.198334 -0.000004 0.065374
										CHANNELS 6 Xposition Yposition Zposition Xrotation Yrotation Zrotation
										End Site
										{
											OFFSET 7.895309 -0.000004 0.000000
										}
									}
								}
							}
						}
					}
				}
			}
		}
	}
	JOINT Haolin_V1:Solving:RightUpLeg
	{
		OFFSET -10.695510 0.000000 0.000000
		CHANNELS 6 Xposition Yposition Zposition Xrotation Yrotation Zrotation
		JOINT Haolin_V1:Solving:RightLeg
		{
			OFFSET 0.000000 46.236332 -0.000006
			CHANNELS 6 Xposition Yposition Zposition Xrotation Yrotation Zrotation
			JOINT Haolin_V1:Solving:RightFoot
			{
				OFFSET 0.000000 41.248135 -0.000006
				CHANNELS 6 Xposition Yposition Zposition Xrotation Yrotation Zrotation
				JOINT Haolin_V1:Solving:RightForeFoot
				{
					OFFSET 0.000000 3.207336 -0.000000
					CHANNELS 6 Xposition Yposition Zposition Xrotation Yrotation Zrotation
					JOINT Haolin_V1:Solving:RightToeBase
					{
						OFFSET 0.000000 0.000000 -12.560947
						CHANNELS 6 Xposition Yposition Zposition Xrotation Yrotation Zrotation
						JOINT Haolin_V1:Solving:RightToeBaseEnd
						{
							OFFSET 0.000000 0.000000 -3.517768
							CHANNELS 6 Xposition Yposition Zposition Xrotation Yrotation Zrotation
							End Site
							{
								OFFSET 0.000000 -3.517769 0.000004
							}
						}
					}
				}
			}
		}
	}
	JOINT Haolin_V1:Solving:LeftUpLeg
	{
		OFFSET 10.695510 0.000000 0.000000
		CHANNELS 6 Xposition Yposition Zposition Xrotation Yrotation Zrotation
		JOINT Haolin_V1:Solving:LeftLeg
		{
			OFFSET 0.000000 46.236332 -0.000006
			CHANNELS 6 Xposition Yposition Zposition Xrotation Yrotation Zrotation
			JOINT Haolin_V1:Solving:LeftFoot
			{
				OFFSET 0.000000 41.248135 -0.000006
				CHANNELS 6 Xposition Yposition Zposition Xrotation Yrotation Zrotation
				JOINT Haolin_V1:Solving:LeftForeFoot
				{
					OFFSET 0.000000 3.207336 -0.000000
					CHANNELS 6 Xposition Yposition Zposition Xrotation Yrotation Zrotation
					JOINT Haolin_V1:Solving:LeftToeBase
					{
						OFFSET 0.000000 0.000000 -12.560947
						CHANNELS 6 Xposition Yposition Zposition Xrotation Yrotation Zrotation
						JOINT Haolin_V1:Solving:LeftToeBaseEnd
						{
							OFFSET 0.000000 0.000000 -3.901837
							CHANNELS 6 Xposition Yposition Zposition Xrotation Yrotation Zrotation
							End Site
							{
								OFFSET 0.000000 -3.901840 0.000004
							}
						}
					}
				}
			}
		}
	}
}
MOTION
Frames: 5
Frame Time: 0.041667
-4.965431 -98.690506 -94.164841 -75.549289 7.873179 177.429204 -0.000000 -12.731942 2.520511 12.762394 -0.458899 -1.958459 -0.000001 -8.486865 1.496476 1.004686 -0.451826 0.473773 0.000000 -8.584993 0.751082 -5.624008 -8.486206 0.422591 0.000001 -8.617782 -0.000002 -3.899056 -2.239836 2.576653 -0.000010 -11.079999 -1.108007 7.727028 5.436975 -0.064283 0.000003 -8.314007 -0.727368 5.159304 13.750311 -1.923444 0.000000 -8.218968 -1.449237 11.990101 1.106873 -3.002822 0.000001 -9.728096 -0.000003 -0.000001 0.000000 0.000000 -0.000001 -7.914276 -5.288067 0.000004 6.951964 22.075778 -20.201828 0.000007 -0.000014 -71.849396 -20.024733 -117.374998 -29.446461 0.000015 0.000015 118.364269 -78.373306 118.863555 -23.111912 0.000001 -0.000018 3.824129 -5.123009 36.817698 -3.824363 2.925486 -2.843750 0.000003 -0.000009 0.000000 -10.198304 -0.000002 0.065392 -0.000003 -0.000002 -0.000001 -0.000001 -7.914284 -5.288067 -0.000001 -12.623109 -20.308982 20.201838 -0.000026 -0.000016 -49.649502 2.233194 95.497970 29.446451 -0.000011 0.000008 -30.877182 115.804327 28.294680 23.111856 0.000006 -0.000015 -8.040616 -7.211280 -48.374962 3.824355 2.925471 -2.843746 -0.000003 -0.000009 -0.000002 10.198288 -0.000018 0.065398 -0.000002 -0.000000 -0.000000 -10.695511 -0.000004 0.000004 10.809889 20.140293 4.644296 0.000002 46.236340 -0.000006 14.561873 -0.000000 0.000001 -0.000005 41.248119 0.000013 -12.631535 0.891133 -4.940650 -0.000004 3.207336 -0.000004 0.000000 0.000002 -0.000000 0.000001 0.000001 -12.560949 10.642078 -0.000001 -0.000000 -0.000003 -0.000008 -3.517744 -0.000002 -0.000001 0.000001 10.695507 0.000011 -0.000003 5.678430 -6.306935 0.180428 0.000003 46.236347 -0.000013 17.038247 0.000000 0.000002 -0.000000 41.248142 -0.000010 -9.663843 -12.338650 -5.716415 -0.000001 3.207337 -0.000006 0.000000 0.000005 0.000001 -0.000004 -0.000003 -12.560965 11.897510 0.000005 -0.000001 -0.000003 0.000015 -3.901858 -0.000001 0.000002 -0.000000 
-4.943607 -98.666977 -94.155045 -75.608589 8.025962 177.388796 -0.000001 -12.731908 2.520516 12.804234 -0.464448 -1.931144 -0.000000 -8.486870 1.496472 0.999206 -0.452384 0.472411 0.000000 -8.584991 0.751111 -5.654978 -8.527104 0.417204 -0.000001 -8.617773 0.000006 -3.986043 -2.229457 2.575736 0.000003 -11.080050 -1.108001 7.674286 5.238223 -0.058110 0.000003 -8.314036 -0.727359 5.140140 13.483625 -1.920436 0.000000 -8.219022 -1.449232 11.987006 1.089793 -2.995599 0.000001 -9.728096 -0.000010 0.000001 0.000000 -0.000000 0.000007 -7.914341 -5.288074 0.000007 6.853059 22.127086 -20.201818 -0.000015 0.000011 -72.987094 -21.380930 -118.125116 -29.446447 0.000004 0.000019 116.171928 -78.353581 116.646626 -23.111897 -0.000028 0.000001 3.715194 -5.117745 36.052317 -3.824390 2.925475 -2.843772 0.000005 0.000010 -0.000003 -10.198343 0.000003 0.065361 0.000000 0.000002 -0.000002 0.000006 -7.914341 -5.288075 -0.000004 -12.629642 -20.377649 20.201818 -0.000005 -0.000002 -50.175946 4.052920 96.117516 29.446447 -0.000001 -0.000003 -31.566276 115.814450 28.946246 23.111874 -0.000025 -0.000012 -8.510479 -7.529303 -48.792016 3.824387 2.925502 -2.843776 -0.000003 0.000007 0.000001 10.198328 0.000011 0.065365 0.000006 0.000005 0.000003 -10.695510 0.000016 -0.000005 10.657700 20.282962 4.680943 -0.000006 46.236336 0.000015 14.732143 0.000002 0.000001 0.000001 41.248123 -0.000006 -12.683570 0.919505 -4.927622 -0.000004 3.207336 0.000013 0.000000 0.000001 0.000000 0.000005 -0.000007 -12.560932 10.611272 -0.000002 -0.000000 -0.000000 -0.000000 -3.517765 -0.000001 -0.000000 0.000000 10.695511 0.000017 0.000005 5.515159 -6.077373 0.200454 0.000000 46.236340 -0.000026 17.161842 0.000001 0.000001 -0.000003 41.248142 -0.000031 -9.656668 -12.302192 -5.658501 0.000008 3.207337 0.000008 -0.000000 0.000001 0.000000 0.000003 0.000014 -12.560964 12.022766 -0.000001 0.000002 -0.000003 -0.000000 -3.901829 -0.000001 0.000001 -0.000000 
-4.913924 -98.622086 -94.157394 -75.742188 8.203288 177.366762 -0.000002 -12.731932 2.520496 12.810748 -0.478381 -1.901773 0.000001 -8.486875 1.496489 0.953561 -0.459273 0.466427 -0.000001 -8.584991 0.751079 -5.680936 -8.527599 0.360653 0.000001 -8.617776 0.000002 -4.053660 -2.296149 2.472839 0.000004 -11.079994 -1.107968 7.461854 5.186338 0.088691 -0.000003 -8.313974 -0.727389 5.141943 12.959398 -1.831735 0.000001 -8.218969 -1.449218 12.118861 1.043652 -2.886230 -0.000001 -9.728111 -0.000005 0.000001 0.000000 0.000000 0.000002 -7.914276 -5.288052 0.000005 6.802369 22.292624 -20.201820 -0.000014 0.000006 -74.324029 -22.814585 -119.001894 -29.446449 -0.000001 -0.000002 114.026272 -78.753761 114.441957 -23.111877 0.000020 -0.000025 3.782423 -5.558869 34.313470 -3.824371 2.925498 -2.843762 -0.000002 -0.000009 -0.000000 -10.198325 0.000015 0.065375 -0.000006 -0.000002 0.000002 0.000004 -7.914280 -5.288054 0.000000 -12.610053 -20.232192 20.201838 0.000010 -0.000014 -50.834738 6.224957 96.733804 29.446472 0.000001 0.000024 -32.434273 115.637179 29.808400 23.111862 -0.000012 0.000012 -8.774152 -7.752034 -48.848792 3.824397 2.925472 -2.843784 -0.000005 0.000005 0.000004 10.198327 -0.000001 0.065360 -0.000002 -0.000000 0.000002 -10.695508 0.000011 -0.000016 10.407882 20.430291 4.704576 0.000002 46.236336 -0.000011 14.931769 0.000000 0.000001 -0.000004 41.248138 0.000011 -12.698535 0.932893 -4.781958 0.000001 3.207336 0.000009 0.000000 -0.000001 -0.000000 -0.000000 0.000002 -12.560957 10.537892 0.000001 0.000001 -0.000001 0.000000 -3.517761 0.000000 0.000001 -0.000000 10.695509 -0.000001 -0.000014 5.255578 -5.828895 0.205838 -0.000007 46.236347 -0.000005 17.294661 -0.000002 0.000001 -0.000003 41.248123 -0.000006 -9.551046 -12.293394 -5.649108 -0.000004 3.207329 -0.000018 0.000000 0.000002 -0.000000 -0.000003 -0.000004 -12.560966 11.856324 0.000005 -0.000003 -0.000008 -0.000007 -3.901858 0.000001 0.000003 -0.000000 
-4.882025 -98.565926 -94.159340 -75.928740 8.396794 177.328868 -0.000002 -12.731915 2.520560 12.768029 -0.489557 -1.915045 0.000001 -8.486833 1.496465 0.882197 -0.455863 0.452351 0.000002 -8.584987 0.751094 -5.667786 -8.387325 0.449319 0.000004 -8.617748 -0.000002 -4.095326 -2.228702 2.514592 -0.000007 -11.079994 -1.107986 7.151005 4.902542 -0.037679 -0.000002 -8.314010 -0.727390 5.138131 12.191373 -1.695852 0.000001 -8.218989 -1.449237 12.258969 0.971886 -2.723976 0.000001 -9.728081 0.000012 -0.000000 -0.000000 0.000000 -0.000004 -7.914280 -5.288060 0.000002 6.128980 22.843405 -20.201843 -0.000022 -0.000008 -75.291320 -23.838748 -119.901034 -29.446455 -0.000014 -0.000010 112.465396 -78.862758 112.852518 -23.111879 -0.000034 -0.000007 3.756772 -6.103318 31.698894 -3.824385 2.925502 -2.843779 0.000007 0.000002 0.000002 -10.198318 0.000014 0.065350 0.000003 -0.000000 0.000001 -0.000004 -7.914280 -5.288060 -0.000002 -12.867147 -20.271021 20.201820 0.000012 -0.000012 -51.547229 8.676678 97.305955 29.446449 0.000001 0.000004 -33.971138 115.533483 31.298416 23.111906 -0.000010 0.000013 -8.249579 -7.511267 -47.961291 3.824442 2.925517 -2.843776 0.000005 -0.000003 -0.000007 10.198377 0.000008 0.065358 0.000005 -0.000002 -0.000003 -10.695511 0.000009 0.000038 10.089097 20.651060 4.758400 -0.000000 46.236324 -0.000018 15.127597 0.000001 0.000001 -0.000002 41.248142 -0.000018 -12.733263 0.898393 -4.659404 -0.000003 3.207336 -0.000023 -0.000000 0.000001 -0.000000 -0.000000 -0.000014 -12.560951 10.485256 0.000001 0.000000 0.000004 0.000008 -3.517762 -0.000001 0.000001 0.000000 10.695509 -0.000001 0.000042 4.936762 -5.567033 0.240687 -0.000005 46.236336 -0.000018 17.420008 -0.000000 0.000001 -0.000009 41.248142 -0.000020 -9.339484 -12.236345 -5.838104 -0.000008 3.207336 0.000006 -0.000000 0.000002 -0.000000 0.000003 -0.000000 -12.560937 11.503994 0.000001 0.000001 -0.000003 0.000008 -3.901836 -0.000000 0.000001 0.000000 
-4.857103 -98.512657 -94.157600 -76.113169 8.599474 177.281002 -0.000002 -12.731907 2.520533 12.706469 -0.509998 -1.885103 0.000002 -8.486869 1.496457 0.815478 -0.464698 0.449453 0.000001 -8.584999 0.751087 -5.679485 -8.580484 0.353468 -0.000001 -8.617780 -0.000001 -4.133373 -2.299714 2.399726 -0.000004 -11.080042 -1.107998 6.899003 4.606568 0.234034 0.000000 -8.314021 -0.727391 5.095149 11.636767 -1.642740 0.000001 -8.218937 -1.449214 12.393997 0.923449 -2.635996 -0.000000 -9.728058 0.000008 0.000000 -0.000000 0.000000 -0.000005 -7.914299 -5.288070 0.000006 6.130712 23.237292 -20.201820 0.000017 0.000003 -76.871634 -25.228166 -120.943813 -29.446455 0.000019 -0.000028 108.414165 -79.226711 108.721578 -23.111879 0.000020 -0.000016 3.566400 -6.660249 28.252775 -3.824404 2.925482 -2.843765 0.000004 0.000002 -0.000002 -10.198333 -0.000008 0.065392 0.000000 0.000001 0.000001 -0.000002 -7.914303 -5.288072 -0.000001 -12.563581 -20.057685 20.201824 0.000027 0.000022 -52.174405 11.067978 97.887218 29.446453 -0.000018 -0.000003 -32.544267 114.808499 30.082260 23.111885 -0.000012 -0.000004 -7.122675 -6.978564 -45.804061 3.824395 2.925473 -2.843762 0.000009 -0.000002 0.000001 10.198340 -0.000016 0.065386 0.000002 -0.000001 -0.000002 -10.695513 0.000029 0.000012 9.760579 20.956858 4.841538 -0.000001 46.236340 0.000033 15.330310 -0.000000 0.000001 -0.000004 41.248142 -0.000011 -12.782284 0.799159 -4.582965 -0.000000 3.207336 -0.000020 -0.000000 -0.000000 0.000000 0.000001 -0.000006 -12.560961 10.468802 -0.000002 0.000001 -0.000002 0.000008 -3.517740 -0.000000 -0.000001 0.000000 10.695508 0.000032 0.000029 4.628446 -5.270866 0.293638 -0.000003 46.236324 -0.000006 17.529452 -0.000001 0.000001 -0.000003 41.248127 -0.000015 -9.191184 -12.223158 -5.873898 0.000000 3.207329 -0.000014 -0.000000 0.000002 -0.000000 0.000003 -0.000004 -12.560970 11.374771 -0.000001 -0.000000 -0.000001 0.000000 -3.901815 0.000001 0.000001 0.000000 
